:SAMPLES-PER-SECOND 30
:FULLY-SPECIFIED
:DEGREES
864
root  -5.06203 39.7994 -9.72793 8.52799 -77.1606 -21.6396
RightUpLeg  11.0951 -11.5599 1.37942
RightLeg  16.7326 -7.04858 1.16356
RightFoot  -12.9602 -0.134449 -3.43741
RightToes  0.000482159 0.542163 -0.142577
Spine  18.4309 -3.71928 11
Spine1  8.83906 -2.30285 1.10769
HEad  -1.21764 -1.39403 -0.950516
LeftShoulder1  9.67506 -15.351 -44.7022
LeftArm  -10.2515 11.3833 -18.6841
LeftForeArm  51.8572 -77.8331 -58.4229
LeftHand  -0.25398 0.0180481 5.50724
RightShoulder  4.92032 9.14542 32.9566
RightArm  -10.1797 -29.314 23.9952
RightForeArm  67.5701 75.7938 121.537
RightHand  0.268499 -9.08915 -9.9736
LeftUpLeg  -15.7846 11.7176 5.89213
LeftLeg  27.2344 4.04702 2.73862
LeftFoot  -0.65256 0.256072 -2.68375
LeftToes  1.06246e-005 4.65854e-005 -8.18503e-006
865
root  -6.64814 39.7137 -9.07855 5.48049 -76.3671 -17.7938
RightUpLeg  14.527 -12.2291 -1.23055
RightLeg  14.8551 -6.16489 2.89049
RightFoot  -14.7764 -0.162505 -2.08338
RightToes  0.000482159 0.542163 -0.142577
Spine  17.3222 -4.55475 11.7893
Spine1  8.92507 -2.82777 -0.792582
HEad  -0.99916 -1.38088 -0.734841
LeftShoulder1  9.56084 -15.2856 -44.3108
LeftArm  -10.3269 11.972 -18.4666
LeftForeArm  52.8804 -77.9616 -59.4623
LeftHand  -0.25398 0.0180481 5.50724
RightShoulder  5.02227 9.38078 33.0368
RightArm  -9.27615 -28.3817 23.6669
RightForeArm  66.4063 75.9185 120.623
RightHand  0.263276 -8.85777 -10.3917
LeftUpLeg  -15.3706 10.2039 3.87684
LeftLeg  12.8337 4.82482 0.932393
LeftFoot  0.388751 0.374506 -3.68074
LeftToes  1.06246e-005 4.65854e-005 -8.18503e-006
866
root  -8.31048 39.4406 -8.39928 3.12029 -74.9247 -14.7451
RightUpLeg  17.1804 -14.6359 -3.97151
RightLeg  15.4086 -4.30939 3.75631
RightFoot  -16.9454 -0.190901 -1.49387
RightToes  0.000482159 0.542163 -0.142577
Spine  15.9373 -5.7202 12.5829
Spine1  9.03937 -3.71223 -2.4006
HEad  -0.368636 -1.30368 -0.016614
LeftShoulder1  9.43021 -15.2482 -43.7655
LeftArm  -10.0624 12.3272 -18.0242
LeftForeArm  52.553 -77.9506 -59.5534
LeftHand  -0.25398 0.0180481 5.50724
RightShoulder  5.09533 9.4913 33.267
RightArm  -8.38576 -27.2753 23.5694
RightForeArm  64.3184 76.1179 119.053
RightHand  0.282966 -8.93554 -10.797
LeftUpLeg  -14.954 3.52076 3.6997
LeftLeg  3.59932 11.0113 -1.57717
LeftFoot  -0.357467 0.540814 -5.60588
LeftToes  1.06246e-005 4.65854e-005 -8.18503e-006
867
root  -10.119 39.1654 -8.00086 2.03356 -77.2739 -14.1007
RightUpLeg  19.973 -15.7054 -5.7961
RightLeg  17.1735 -0.714504 2.40388
RightFoot  -19.1476 -0.167227 -0.662818
RightToes  0.000482159 0.542163 -0.142577
Spine  15.9103 -4.6805 11.1849
Spine1  9.85164 -2.65505 -2.69125
HEad  0.582318 -1.35461 0.853902
LeftShoulder1  9.33374 -15.1857 -43.4459
LeftArm  -9.62155 12.3713 -17.3915
LeftForeArm  50.6747 -77.7659 -58.3594
LeftHand  -0.25398 0.0180481 5.50724
RightShoulder  5.13369 9.49845 33.5389
RightArm  -7.50513 -26.2751 23.604
RightForeArm  61.627 76.3609 116.974
RightHand  0.276312 -8.60804 -11.5876
LeftUpLeg  -13.777 3.85054 3.95298
LeftLeg  1.64588 14.1493 -3.30146
LeftFoot  -1.09238 0.52653 -5.763
LeftToes  1.06246e-005 4.65854e-005 -8.18503e-006
868
root  -11.9559 38.8601 -7.75468 -0.582831 -81.5154 -12.5556
RightUpLeg  21.7068 -12.7456 -6.28863
RightLeg  20.7903 1.33551 0.307722
RightFoot  -20.7664 0.170296 3.74145
RightToes  0.000482159 0.542163 -0.142577
Spine  16.8482 -2.28173 7.90756
Spine1  11.0212 -0.711409 -1.68343
HEad  1.3907 -1.55115 1.67639
LeftShoulder1  9.29166 -15.0859 -43.4847
LeftArm  -9.25282 12.0301 -16.8633
LeftForeArm  47.7005 -77.4014 -55.8896
LeftHand  -0.25398 0.0180481 5.50724
RightShoulder  5.18677 9.52536 33.8622
RightArm  -6.66148 -25.5081 23.4374
RightForeArm  58.3793 76.6285 114.398
RightHand  0.212062 -7.64793 -12.8602
LeftUpLeg  -12.5467 7.79877 4.01207
LeftLeg  5.32585 14.4581 -3.46033
LeftFoot  1.94142 0.204517 -2.09486
LeftToes  1.06246e-005 4.65854e-005 -8.18503e-006
869
root  -13.71 38.5242 -7.37601 -8.65446 -83.0407 -5.54751
RightUpLeg  21.0309 -8.09009 -6.68069
RightLeg  28.915 -0.311447 -0.432373
RightFoot  -18.8316 0.499525 10.1376
RightToes  0.000482159 0.542163 -0.142577
Spine  18.0654 -0.96451 4.32598
Spine1  11.4878 -0.296246 -0.0218066
HEad  1.84624 -1.78752 2.5215
LeftShoulder1  9.33148 -15.0534 -43.7622
LeftArm  -9.09822 11.2955 -16.4798
LeftForeArm  43.8714 -76.7935 -52.085
LeftHand  -0.25398 0.0180481 5.50724
RightShoulder  5.26255 9.56881 34.3052
RightArm  -6.16159 -24.7057 23.3346
RightForeArm  53.5062 77.0298 109.887
RightHand  0.145606 -6.89554 -13.7334
LeftUpLeg  -12.5985 14.2766 1.64533
LeftLeg  11.384 7.71155 -1.71456
LeftFoot  7.39412 -0.577904 3.26566
LeftToes  1.06246e-005 4.65854e-005 -8.18503e-006
870
root  -15.3381 38.3238 -6.86947 -22.0702 -82.1946 7.39726
RightUpLeg  16.5495 -7.4204 -9.38077
RightLeg  41.9814 -1.29909 -1.62817
RightFoot  -9.85535 -0.16514 12.1648
RightToes  0.000482159 0.542163 -0.142577
Spine  19.4707 -0.781883 0.984351
Spine1  11.2155 -0.952373 1.31148
HEad  1.92488 -1.95688 3.22837
LeftShoulder1  9.48829 -15.1902 -44.1931
LeftArm  -9.11233 10.0879 -15.8512
LeftForeArm  39.1975 -75.8525 -47.2482
LeftHand  -0.25398 0.0180481 5.50724
RightShoulder  5.33893 9.60316 34.7761
RightArm  -6.41289 -23.5435 23.9303
RightForeArm  46.503 77.5127 102.404
RightHand  0.144811 -6.92676 -13.5048
LeftUpLeg  -13.5253 19.9952 -2.22622
LeftLeg  17.2896 -0.157292 0.0128825
LeftFoot  9.09657 -1.23828 6.61685
LeftToes  1.06246e-005 4.65854e-005 -8.18503e-006
871
root  -16.7038 38.2152 -6.37122 -39.6905 -81.7768 26.2705
RightUpLeg  6.77956 -6.50769 -12.4137
RightLeg  56.5037 -2.25762 -4.07702
RightFoot  2.97777 -0.878309 7.34576
RightToes  0.000482159 0.542163 -0.142577
Spine  20.1467 -0.267648 -1.99836
Spine1  11.0234 -0.906722 1.23206
HEad  1.35866 -2.04655 3.29948
LeftShoulder1  9.74393 -15.4806 -44.7132
LeftArm  -9.17499 8.15136 -14.8744
LeftForeArm  33.8134 -74.5143 -41.9814
LeftHand  -0.25398 0.0180481 5.50724
RightShoulder  5.42594 9.71643 35.0803
RightArm  -7.32816 -21.8731 25.1029
RightForeArm  38.5382 77.8067 93.3578
RightHand  0.137355 -6.92527 -12.9524
LeftUpLeg  -15.0199 20.5199 -5.27007
LeftLeg  22.2542 0.49909 0.633243
LeftFoot  5.49623 -1.15291 7.53511
LeftToes  1.06246e-005 4.65854e-005 -8.18503e-006
872
root  -17.8213 38.1251 -5.87505 -54.4609 -80.8368 42.3228
RightUpLeg  -3.33204 -6.15762 -14.8802
RightLeg  66.8774 -1.76352 -5.13803
RightFoot  10.1631 -0.299684 1.75841
RightToes  0.000482159 0.542163 -0.142577
Spine  21.6208 -0.0150085 -3.72886
Spine1  10.9449 -0.797608 0.0749211
HEad  -0.0446291 -2.15095 2.51801
LeftShoulder1  10.019 -15.8403 -45.1375
LeftArm  -9.20669 5.38544 -14.126
LeftForeArm  28.225 -72.7277 -36.683
LeftHand  -0.25398 0.0180481 5.50724
RightShoulder  5.55222 9.9849 35.1974
RightArm  -8.26273 -19.6229 25.8968
RightForeArm  30.2336 77.7871 84.4405
RightHand  0.0248749 -5.87387 -13.3557
LeftUpLeg  -15.6306 20.6063 -8.13932
LeftLeg  25.3181 2.10026 1.41763
LeftFoot  0.84478 -0.80799 7.50397
LeftToes  1.06246e-005 4.65854e-005 -8.18503e-006
873
root  -18.8949 38.2824 -5.36851 -60.9819 -80.6179 50.1401
RightUpLeg  -12.1911 -6.757 -15.3269
RightLeg  71.1788 -0.93387 -3.9984
RightFoot  9.71897 0.0841546 -0.0823212
RightToes  0.000482159 0.542163 -0.142577
Spine  23.0032 -0.143671 -3.33219
Spine1  10.9449 -0.62976 -0.838206
HEad  -1.74961 -2.30159 1.31077
LeftShoulder1  10.259 -16.2106 -45.3578
LeftArm  -9.16443 2.26015 -14.0426
LeftForeArm  23.3009 -70.5337 -31.7401
LeftHand  -0.25398 0.0180481 5.50724
RightShoulder  5.71893 10.3528 35.3047
RightArm  -8.70344 -16.7661 25.7037
RightForeArm  20.1624 77.3947 74.659
RightHand  -0.160305 -4.25577 -14.3469
LeftUpLeg  -15.0478 20.8745 -9.53769
LeftLeg  25.5529 2.57759 1.68747
LeftFoot  -1.40711 -0.617316 7.19284
LeftToes  1.06246e-005 4.65854e-005 -8.18503e-006
874
root  -19.9769 38.6184 -4.92132 -61.4247 -80.8273 52.0086
RightUpLeg  -19.2976 -8.45582 -14.179
RightLeg  69.5934 -0.662431 -2.80548
RightFoot  6.67728 -0.257957 1.94508
RightToes  0.000482159 0.542163 -0.142577
Spine  24.1287 -0.512401 -2.44058
Spine1  10.8338 -0.831547 -0.783263
HEad  -2.84828 -2.34862 0.330689
LeftShoulder1  10.4802 -16.567 -45.5169
LeftArm  -9.02632 -0.507101 -14.2744
LeftForeArm  19.525 -68.1252 -27.5749
LeftHand  -0.25398 0.0180481 5.50724
RightShoulder  5.88299 10.6945 35.4634
RightArm  -8.65026 -13.4 24.9033
RightForeArm  8.2524 76.3735 62.992
RightHand  -0.256396 -3.43956 -14.223
LeftUpLeg  -14.1503 21.0467 -9.88666
LeftLeg  24.6327 2.39588 1.5424
LeftFoot  -2.27414 -0.507671 6.56485
LeftToes  1.06246e-005 4.65854e-005 -8.18503e-006
875
root  -21.0798 38.9085 -4.56845 -57.8351 -80.5643 49.7402
RightUpLeg  -24.2328 -11.0906 -12.3057
RightLeg  63.3559 -1.74634 -4.24712
RightFoot  4.5083 -0.553134 4.15924
RightToes  0.000482159 0.542163 -0.142577
Spine  25.2475 -0.967275 -2.46281
Spine1  10.4522 -1.6398 0.143105
HEad  -3.09612 -2.20352 -0.09257
LeftShoulder1  10.6805 -16.8784 -45.6829
LeftArm  -8.75867 -2.74942 -14.3795
LeftForeArm  16.5094 -65.5914 -24.1777
LeftHand  -0.25398 0.0180481 5.50724
RightShoulder  5.96793 10.901 35.4588
RightArm  -8.32708 -9.8464 24.2589
RightForeArm  -2.30145 74.6153 51.6739
RightHand  -0.205877 -3.67002 -12.5264
LeftUpLeg  -13.2193 20.7568 -10.1655
LeftLeg  24.0501 2.36968 1.49818
LeftFoot  -3.77714 -0.384872 6.17239
LeftToes  1.06246e-005 4.65854e-005 -8.18503e-006
876
root  -22.178 39.1093 -4.26112 -55.3902 -80.1776 48.6141
RightUpLeg  -27.412 -13.767 -9.83573
RightLeg  53.0854 -4.41957 -6.63888
RightFoot  3.14465 -0.42401 3.48743
RightToes  0.000482159 0.542163 -0.142577
Spine  26.4912 -1.31174 -2.77518
Spine1  9.71113 -2.39667 1.11206
HEad  -3.10907 -2.02713 -0.105571
LeftShoulder1  10.788 -17.1164 -45.6058
LeftArm  -8.31912 -4.87503 -14.5485
LeftForeArm  13.6993 -62.7824 -21.2207
LeftHand  -0.25398 0.0180481 5.50724
RightShoulder  5.93999 10.9376 35.165
RightArm  -7.90906 -6.61843 24.0594
RightForeArm  -9.17882 72.6067 43.482
RightHand  -0.161605 -3.8718 -10.815
LeftUpLeg  -12.2297 20.1189 -10.6021
LeftLeg  23.3748 2.65574 1.59827
LeftFoot  -5.58728 -0.272245 6.07916
LeftToes  1.06246e-005 4.65854e-005 -8.18503e-006
877
root  -23.3267 39.2195 -4.00008 -54.5032 -79.7067 49.3094
RightUpLeg  -29.065 -17.0207 -7.09299
RightLeg  38.8921 -6.23625 -5.90203
RightFoot  1.95908 -0.3504 3.14094
RightToes  0.000482159 0.542163 -0.142577
Spine  27.1392 -1.45181 -3.26554
Spine1  9.28896 -2.88333 1.89022
HEad  -3.58296 -2.04935 -0.189764
LeftShoulder1  10.7961 -17.324 -45.167
LeftArm  -7.84053 -7.02905 -15.0428
LeftForeArm  11.1196 -59.7441 -18.6579
LeftHand  -0.25398 0.0180481 5.50724
RightShoulder  5.8778 10.9058 34.8301
RightArm  -7.50061 -4.09987 24.0313
RightForeArm  -13.3573 70.9014 38.5111
RightHand  -0.202534 -3.3493 -10.4457
LeftUpLeg  -11.725 18.9627 -11.2865
LeftLeg  23.0512 3.01934 1.74992
LeftFoot  -7.10179 -0.159704 5.43602
LeftToes  1.06246e-005 4.65854e-005 -8.18503e-006
878
root  -24.5992 39.1643 -3.8246 -54.5173 -78.8782 50.8786
RightUpLeg  -28.9394 -20.4604 -4.89994
RightLeg  22.658 -5.71127 -2.2214
RightFoot  0.797522 -0.644382 6.13525
RightToes  0.000482159 0.542163 -0.142577
Spine  27.3844 -1.37352 -4.44173
Spine1  9.07777 -3.23731 2.61249
HEad  -4.50798 -2.37863 -0.549728
LeftShoulder1  10.8466 -17.5871 -44.7942
LeftArm  -7.56986 -8.86464 -15.4622
LeftForeArm  9.11545 -56.9232 -16.6958
LeftHand  -0.25398 0.0180481 5.50724
RightShoulder  5.87226 10.9559 34.6529
RightArm  -7.10125 -2.30873 23.9829
RightForeArm  -16.3571 69.4416 35.1386
RightHand  -0.287065 -2.43593 -10.7664
LeftUpLeg  -11.866 17.6727 -12.1892
LeftLeg  24.4812 3.55977 2.11819
LeftFoot  -9.20136 -0.029628 4.61013
LeftToes  1.06246e-005 4.65854e-005 -8.18503e-006
